<mxfile host="Electron" modified="2024-09-25T16:16:36.767Z" agent="Mozilla/5.0 (Macintosh; Intel Mac OS X 10_15_7) AppleWebKit/537.36 (KHTML, like Gecko) draw.io/24.4.0 Chrome/120.0.6099.109 Electron/28.1.0 Safari/537.36" etag="rrzhMlIHHhzrYxysykMQ" version="24.4.0" type="device">
  <diagram name="Page-1" id="yMHMsvlY9YUbe_fUeK2O">
    <mxGraphModel dx="1100" dy="837" grid="0" gridSize="10" guides="1" tooltips="1" connect="1" arrows="1" fold="1" page="0" pageScale="1" pageWidth="1169" pageHeight="827" math="0" shadow="0">
      <root>
        <mxCell id="0" />
        <mxCell id="1" parent="0" />
        <mxCell id="wxQJnQG2bVuzjExKnA6t-1" value="Add a habit" style="ellipse;whiteSpace=wrap;html=1;fillColor=#FF8000;strokeColor=#000066;fontColor=#000099;" vertex="1" parent="1">
          <mxGeometry x="245" y="75" width="120" height="80" as="geometry" />
        </mxCell>
        <mxCell id="wxQJnQG2bVuzjExKnA6t-2" value="Delete a habit" style="ellipse;whiteSpace=wrap;html=1;fillColor=#FF8000;strokeColor=#000066;fontColor=#000099;" vertex="1" parent="1">
          <mxGeometry x="245" y="165" width="120" height="80" as="geometry" />
        </mxCell>
        <mxCell id="wxQJnQG2bVuzjExKnA6t-3" value="Mark habit as done&amp;nbsp; today" style="ellipse;whiteSpace=wrap;html=1;fillColor=#FF8000;strokeColor=#000066;fontColor=#000099;" vertex="1" parent="1">
          <mxGeometry x="245" y="255" width="120" height="80" as="geometry" />
        </mxCell>
        <mxCell id="wxQJnQG2bVuzjExKnA6t-4" value="Add a comment" style="ellipse;whiteSpace=wrap;html=1;fillColor=#FF8000;strokeColor=#000066;fontColor=#000099;" vertex="1" parent="1">
          <mxGeometry x="475" y="255" width="120" height="80" as="geometry" />
        </mxCell>
        <mxCell id="wxQJnQG2bVuzjExKnA6t-5" value="Update habit history" style="ellipse;whiteSpace=wrap;html=1;fillColor=#FF8000;strokeColor=#000066;fontColor=#000099;" vertex="1" parent="1">
          <mxGeometry x="475" y="85" width="120" height="80" as="geometry" />
        </mxCell>
        <mxCell id="wxQJnQG2bVuzjExKnA6t-6" value="View habit history" style="ellipse;whiteSpace=wrap;html=1;fillColor=#FF8000;strokeColor=#000066;fontColor=#000099;" vertex="1" parent="1">
          <mxGeometry x="245" y="435" width="120" height="80" as="geometry" />
        </mxCell>
        <mxCell id="wxQJnQG2bVuzjExKnA6t-7" value="View one user&#39;s habits" style="ellipse;whiteSpace=wrap;html=1;fillColor=#FF8000;strokeColor=#000066;fontColor=#000099;" vertex="1" parent="1">
          <mxGeometry x="245" y="555" width="120" height="80" as="geometry" />
        </mxCell>
        <mxCell id="wxQJnQG2bVuzjExKnA6t-8" value="View single habit check-in" style="ellipse;whiteSpace=wrap;html=1;fillColor=#FF8000;strokeColor=#000066;fontColor=#000099;" vertex="1" parent="1">
          <mxGeometry x="475" y="435" width="120" height="80" as="geometry" />
        </mxCell>
        <mxCell id="wxQJnQG2bVuzjExKnA6t-9" value="List all users" style="ellipse;whiteSpace=wrap;html=1;fillColor=#FF8000;strokeColor=#000066;fontColor=#000099;" vertex="1" parent="1">
          <mxGeometry x="475" y="555" width="120" height="80" as="geometry" />
        </mxCell>
        <mxCell id="wxQJnQG2bVuzjExKnA6t-10" style="html=1;exitX=1;exitY=0.3333333333333333;exitPerimeter=0;entryX=0;entryY=0.5;jettySize=auto;orthogonalLoop=1;fillColor=#f8cecc;strokeColor=#FF8000;curved=1;fontColor=#000099;" edge="1" parent="1" source="wxQJnQG2bVuzjExKnA6t-15" target="wxQJnQG2bVuzjExKnA6t-1">
          <mxGeometry relative="1" as="geometry" />
        </mxCell>
        <mxCell id="wxQJnQG2bVuzjExKnA6t-11" style="html=1;exitX=1;exitY=0.3333333333333333;exitPerimeter=0;entryX=0;entryY=0.5;jettySize=auto;orthogonalLoop=1;curved=1;fontColor=#000099;strokeColor=#FF8000;" edge="1" parent="1" source="wxQJnQG2bVuzjExKnA6t-15" target="wxQJnQG2bVuzjExKnA6t-2">
          <mxGeometry relative="1" as="geometry" />
        </mxCell>
        <mxCell id="wxQJnQG2bVuzjExKnA6t-12" style="rounded=0;html=1;exitX=1;exitY=0.3333333333333333;exitPerimeter=0;entryX=0;entryY=0.5;jettySize=auto;orthogonalLoop=1;fontColor=#000099;strokeColor=#FF8000;" edge="1" parent="1" source="wxQJnQG2bVuzjExKnA6t-15" target="wxQJnQG2bVuzjExKnA6t-26">
          <mxGeometry relative="1" as="geometry" />
        </mxCell>
        <mxCell id="wxQJnQG2bVuzjExKnA6t-13" style="edgeStyle=none;curved=1;html=1;exitX=1;exitY=0.3333333333333333;exitPerimeter=0;entryX=0;entryY=0.5;jettySize=auto;orthogonalLoop=1;strokeColor=#FF8000;fontColor=#000099;" edge="1" parent="1" source="wxQJnQG2bVuzjExKnA6t-15" target="wxQJnQG2bVuzjExKnA6t-3">
          <mxGeometry relative="1" as="geometry" />
        </mxCell>
        <mxCell id="wxQJnQG2bVuzjExKnA6t-14" style="edgeStyle=none;curved=1;html=1;exitX=1;exitY=0.3333333333333333;exitPerimeter=0;jettySize=auto;orthogonalLoop=1;strokeColor=#FF8000;entryX=0;entryY=0.5;fontColor=#000099;" edge="1" parent="1" source="wxQJnQG2bVuzjExKnA6t-15" target="wxQJnQG2bVuzjExKnA6t-6">
          <mxGeometry relative="1" as="geometry" />
        </mxCell>
        <mxCell id="wxQJnQG2bVuzjExKnA6t-15" value="User" style="shape=umlActor;verticalLabelPosition=bottom;labelBackgroundColor=#ffffff;verticalAlign=top;html=1;strokeWidth=4;fillColor=#FF8000;strokeColor=#000066;fontColor=#000099;" vertex="1" parent="1">
          <mxGeometry x="130" y="195" width="30" height="60" as="geometry" />
        </mxCell>
        <mxCell id="wxQJnQG2bVuzjExKnA6t-16" style="rounded=0;html=1;exitX=0;exitY=0.3333333333333333;exitPerimeter=0;entryX=1;entryY=0.5;jettySize=auto;orthogonalLoop=1;fontColor=#000099;strokeColor=#FF8000;" edge="1" parent="1" source="wxQJnQG2bVuzjExKnA6t-20" target="wxQJnQG2bVuzjExKnA6t-4">
          <mxGeometry relative="1" as="geometry" />
        </mxCell>
        <mxCell id="wxQJnQG2bVuzjExKnA6t-17" style="edgeStyle=none;curved=1;html=1;exitX=0;exitY=0.3333333333333333;exitPerimeter=0;entryX=1;entryY=0.5;jettySize=auto;orthogonalLoop=1;strokeColor=#FF8000;fontColor=#000099;" edge="1" parent="1" source="wxQJnQG2bVuzjExKnA6t-20" target="wxQJnQG2bVuzjExKnA6t-26">
          <mxGeometry relative="1" as="geometry" />
        </mxCell>
        <mxCell id="wxQJnQG2bVuzjExKnA6t-18" style="edgeStyle=none;html=1;exitX=0;exitY=0.3333333333333333;exitPerimeter=0;entryX=1;entryY=1;jettySize=auto;orthogonalLoop=1;strokeColor=#FF8000;rounded=1;fontColor=#000099;" edge="1" parent="1" source="wxQJnQG2bVuzjExKnA6t-20" target="wxQJnQG2bVuzjExKnA6t-6">
          <mxGeometry relative="1" as="geometry">
            <Array as="points">
              <mxPoint x="635" y="545" />
            </Array>
          </mxGeometry>
        </mxCell>
        <mxCell id="wxQJnQG2bVuzjExKnA6t-19" style="edgeStyle=none;rounded=1;html=1;exitX=0;exitY=0.3333333333333333;exitPerimeter=0;entryX=1;entryY=0.5;jettySize=auto;orthogonalLoop=1;strokeColor=#FF8000;fontSize=14;fontColor=#000099;" edge="1" parent="1" source="wxQJnQG2bVuzjExKnA6t-20" target="wxQJnQG2bVuzjExKnA6t-9">
          <mxGeometry relative="1" as="geometry">
            <Array as="points">
              <mxPoint x="655" y="545" />
            </Array>
          </mxGeometry>
        </mxCell>
        <mxCell id="wxQJnQG2bVuzjExKnA6t-20" value="Coach" style="shape=umlActor;verticalLabelPosition=bottom;labelBackgroundColor=#ffffff;verticalAlign=top;html=1;strokeWidth=4;fillColor=#FF8000;strokeColor=#000066;fontColor=#000099;" vertex="1" parent="1">
          <mxGeometry x="670" y="345" width="30" height="60" as="geometry" />
        </mxCell>
        <mxCell id="wxQJnQG2bVuzjExKnA6t-21" value="&amp;lt;&amp;lt; extend &amp;gt;&amp;gt;" style="endArrow=open;endSize=12;dashed=1;html=1;exitX=0;exitY=0.5;entryX=1;entryY=0.5;fontColor=#000099;strokeColor=#FF8000;" edge="1" parent="1" source="wxQJnQG2bVuzjExKnA6t-8" target="wxQJnQG2bVuzjExKnA6t-6">
          <mxGeometry width="160" relative="1" as="geometry">
            <mxPoint x="495.33333333333326" y="305.33333333333326" as="sourcePoint" />
            <mxPoint x="375.33333333333326" y="305.33333333333326" as="targetPoint" />
          </mxGeometry>
        </mxCell>
        <mxCell id="wxQJnQG2bVuzjExKnA6t-22" value="Habit tracker - use cases" style="shape=umlFrame;whiteSpace=wrap;html=1;strokeWidth=1;fillColor=none;width=200;height=30;fontColor=#000099;strokeColor=#000066;" vertex="1" parent="1">
          <mxGeometry x="215" y="35" width="410" height="610" as="geometry" />
        </mxCell>
        <mxCell id="wxQJnQG2bVuzjExKnA6t-23" value="&amp;lt;&amp;lt; include &amp;gt;&amp;gt;" style="endArrow=open;endSize=12;dashed=1;html=1;exitX=1;exitY=0;entryX=0;entryY=1;fontColor=#000099;strokeColor=#FF8000;" edge="1" parent="1" source="wxQJnQG2bVuzjExKnA6t-3" target="wxQJnQG2bVuzjExKnA6t-5">
          <mxGeometry width="160" relative="1" as="geometry">
            <mxPoint x="495" y="395" as="sourcePoint" />
            <mxPoint x="485" y="125" as="targetPoint" />
          </mxGeometry>
        </mxCell>
        <mxCell id="wxQJnQG2bVuzjExKnA6t-24" value="&amp;lt;&amp;lt; extend &amp;gt;&amp;gt;" style="endArrow=open;endSize=12;dashed=1;html=1;exitX=0.5;exitY=1;entryX=0.5;entryY=0;fontColor=#000099;strokeColor=#FF8000;" edge="1" parent="1" source="wxQJnQG2bVuzjExKnA6t-4" target="wxQJnQG2bVuzjExKnA6t-8">
          <mxGeometry x="0.2727" y="10" width="160" relative="1" as="geometry">
            <mxPoint x="555" y="225" as="sourcePoint" />
            <mxPoint x="555" y="175" as="targetPoint" />
            <mxPoint as="offset" />
          </mxGeometry>
        </mxCell>
        <mxCell id="wxQJnQG2bVuzjExKnA6t-25" value="&amp;lt;&amp;lt; extend &amp;gt;&amp;gt;" style="endArrow=open;endSize=12;dashed=1;html=1;entryX=1;entryY=0.5;exitX=0;exitY=0.5;fontColor=#000099;strokeColor=#FF8000;" edge="1" parent="1" source="wxQJnQG2bVuzjExKnA6t-4" target="wxQJnQG2bVuzjExKnA6t-3">
          <mxGeometry x="-0.0909" width="160" relative="1" as="geometry">
            <mxPoint x="425" y="335" as="sourcePoint" />
            <mxPoint x="555" y="355" as="targetPoint" />
            <mxPoint as="offset" />
          </mxGeometry>
        </mxCell>
        <mxCell id="wxQJnQG2bVuzjExKnA6t-26" value="List habits" style="ellipse;whiteSpace=wrap;html=1;fillColor=#FF8000;strokeColor=#000066;fontColor=#000099;" vertex="1" parent="1">
          <mxGeometry x="245" y="345" width="120" height="80" as="geometry" />
        </mxCell>
        <mxCell id="wxQJnQG2bVuzjExKnA6t-27" value="&amp;lt;&amp;lt; include &amp;gt;&amp;gt;" style="endArrow=open;endSize=12;dashed=1;html=1;exitX=1;exitY=0.5;entryX=0;entryY=0.5;fontColor=#000099;strokeColor=#FF8000;" edge="1" parent="1" source="wxQJnQG2bVuzjExKnA6t-2" target="wxQJnQG2bVuzjExKnA6t-5">
          <mxGeometry width="160" relative="1" as="geometry">
            <mxPoint x="357" y="277" as="sourcePoint" />
            <mxPoint x="513" y="163" as="targetPoint" />
          </mxGeometry>
        </mxCell>
        <mxCell id="wxQJnQG2bVuzjExKnA6t-28" value="&amp;lt;&amp;lt; include &amp;gt;&amp;gt;" style="endArrow=open;endSize=12;dashed=1;html=1;exitX=1;exitY=0.5;entryX=0;entryY=0;fontColor=#000099;strokeColor=#FF8000;" edge="1" parent="1" source="wxQJnQG2bVuzjExKnA6t-1" target="wxQJnQG2bVuzjExKnA6t-5">
          <mxGeometry width="160" relative="1" as="geometry">
            <mxPoint x="375" y="215" as="sourcePoint" />
            <mxPoint x="495" y="135" as="targetPoint" />
          </mxGeometry>
        </mxCell>
        <mxCell id="wxQJnQG2bVuzjExKnA6t-29" value="&amp;lt;&amp;lt; include &amp;gt;&amp;gt;" style="endArrow=open;endSize=12;dashed=1;html=1;exitX=0.5;exitY=0;entryX=0.5;entryY=1;fontColor=#000099;strokeColor=#FF8000;" edge="1" parent="1" source="wxQJnQG2bVuzjExKnA6t-4" target="wxQJnQG2bVuzjExKnA6t-5">
          <mxGeometry width="160" relative="1" as="geometry">
            <mxPoint x="357" y="277" as="sourcePoint" />
            <mxPoint x="503" y="163" as="targetPoint" />
          </mxGeometry>
        </mxCell>
        <mxCell id="wxQJnQG2bVuzjExKnA6t-30" value="&amp;lt;&amp;lt; extend &amp;gt;&amp;gt;" style="endArrow=open;endSize=12;dashed=1;html=1;exitX=1;exitY=0.5;entryX=0;entryY=0.5;fontColor=#000099;strokeColor=#FF8000;" edge="1" parent="1" source="wxQJnQG2bVuzjExKnA6t-7" target="wxQJnQG2bVuzjExKnA6t-9">
          <mxGeometry width="160" relative="1" as="geometry">
            <mxPoint x="485" y="485" as="sourcePoint" />
            <mxPoint x="375" y="485" as="targetPoint" />
          </mxGeometry>
        </mxCell>
        <mxCell id="wxQJnQG2bVuzjExKnA6t-31" value="&amp;lt;&amp;lt; extend &amp;gt;&amp;gt;" style="endArrow=open;endSize=12;dashed=1;html=1;exitX=0.5;exitY=1;entryX=0.5;entryY=0;fontColor=#000099;strokeColor=#FF8000;" edge="1" parent="1" source="wxQJnQG2bVuzjExKnA6t-6" target="wxQJnQG2bVuzjExKnA6t-7">
          <mxGeometry width="160" relative="1" as="geometry">
            <mxPoint x="375" y="605" as="sourcePoint" />
            <mxPoint x="425" y="565" as="targetPoint" />
          </mxGeometry>
        </mxCell>
      </root>
    </mxGraphModel>
  </diagram>
</mxfile>
